<?xml version="1.0" encoding="utf-8"?>
<!-- Generator: Adobe Illustrator 28.0.0, SVG Export Plug-In . SVG Version: 6.00 Build 0)  -->
<svg version="1.1" id="Capa_1" xmlns="http://www.w3.org/2000/svg" xmlns:xlink="http://www.w3.org/1999/xlink" x="0px" y="0px"
	 viewBox="0 0 128 128" style="enable-background:new 0 0 128 128;" xml:space="preserve">
<style type="text/css">
	.st0{fill:#FFFFFF;}
</style>
<path class="st0" d="M64,4.4C31.1,4.4,4.4,31.1,4.4,64s26.7,59.6,59.6,59.6s59.6-26.7,59.6-59.6S96.9,4.4,64,4.4z M86.4,14.6
	c0,0-15.7,64.1-15.8,65.6l-0.3,33.5c0,3-1.5,3-3,3l-9-0.1c-1.5,0-3,0-3-3l0.3-33.5c0-1.5-14-65.9-14-65.9c-0.4-1.7,0-3,2-3l9.6,0.1
	c2.7,0,2.9,0.8,3.4,3L63,47.5c0.1,0.9,1.2,0.9,1.4,0l7.1-33c0.6-2.3,0.5-3,3.5-3l9,0.1C86.9,11.6,86.6,13.1,86.4,14.6z"/>
</svg>
